<?xml version="1.0" standalone="no"?><!DOCTYPE svg PUBLIC "-//W3C//DTD SVG 1.1//EN" "http://www.w3.org/Graphics/SVG/1.1/DTD/svg11.dtd"><svg t="1718262274898" class="icon" viewBox="0 0 1024 1024" version="1.1" xmlns="http://www.w3.org/2000/svg" p-id="36110" xmlns:xlink="http://www.w3.org/1999/xlink" width="64" height="64"><path d="M459.889778 588.913778c9.671111-8.248889 10.353778-19.285333 2.048-32.995556-13.767111-20.650667-39.879111-55.864889-78.392889-105.472v-10.296889h57.799111c11.036444 0 16.497778-6.257778 16.497778-18.602666 0-11.036444-5.461333-16.497778-16.497778-16.497778H383.544889V318.179556c23.381333-5.518222 40.561778-9.614222 51.541333-12.344889 11.036444-4.096 15.872-12.344889 14.506667-24.803556-4.152889-11.036444-12.344889-15.189333-24.803556-12.458667-39.879111 9.671111-84.593778 15.815111-134.144 18.602667-13.767111 1.422222-20.593778 8.248889-20.593777 20.593778 1.308444 12.401778 8.874667 18.602667 22.641777 18.602667 6.826667 0 15.815111-0.739556 26.851556-2.048 13.767111 0 22.698667-0.682667 26.851555-2.048V405.048889H272.099556c-12.344889 0-19.342222 5.518222-20.650667 16.554667 0 12.344889 6.257778 18.602667 18.602667 18.602666h65.991111c-17.806222 46.819556-44.032 95.004444-78.336 144.611556-8.305778 11.036444-7.566222 21.333333 2.048 31.004444 9.557333 6.940444 19.911111 4.835556 30.890666-6.200889 26.168889-39.936 44.714667-73.671111 55.751111-101.262222v225.28c1.308444 9.614222 7.566222 14.506667 18.602667 14.506667 12.344889-1.422222 18.545778-6.940444 18.545778-16.554667v-219.022222c13.767111 17.92 28.899556 40.618667 45.454222 68.152889 9.557333 12.458667 19.911111 15.189333 30.890667 8.248889z m24.803555-272.725334v378.197334h-35.100444c-12.344889 0-19.968 6.257778-22.641778 18.545778 1.308444 12.401778 8.248889 18.602667 20.593778 18.602666h301.340444c11.036444 0 17.180444-6.257778 18.602667-18.602666-1.422222-12.344889-7.566222-18.545778-18.602667-18.545778h-32.995555v-382.293334c0-26.112-13.084444-39.253333-39.196445-39.253333H530.033778c-32.995556-2.787556-48.184889 11.719111-45.340445 43.349333z m191.943111 14.506667v82.659556H523.889778V330.695111c-1.422222-13.767111 4.096-19.911111 16.554666-18.602667h115.541334c15.132444-1.422222 21.959111 4.835556 20.650666 18.602667z m0 119.808v99.214222H523.889778V450.56h152.746666z m0 136.419556v107.463111H523.889778v-107.52h152.746666zM512 967.111111a453.347556 453.347556 0 0 1-321.763556-133.347555A454.371556 454.371556 0 0 1 56.888889 511.943111c0-61.44 11.946667-121.059556 35.84-177.152a453.404444 453.404444 0 0 1 97.507555-144.668444 454.314667 454.314667 0 0 1 144.611556-97.507556A452.209778 452.209778 0 0 1 512 56.888889a453.347556 453.347556 0 0 1 321.763556 133.233778A454.371556 454.371556 0 0 1 967.111111 512a454.542222 454.542222 0 0 1-64.455111 233.528889 27.022222 27.022222 0 1 1-46.307556-27.818667c37.091556-61.952 56.718222-133.12 56.718223-205.710222a398.848 398.848 0 0 0-117.418667-283.591111A399.758222 399.758222 0 0 0 512 110.933333a398.791111 398.791111 0 0 0-283.534222 117.418667A399.815111 399.815111 0 0 0 111.047111 512c0 54.158222 10.581333 106.609778 31.459556 156.046222 20.138667 47.729778 49.038222 90.680889 85.902222 127.431111A399.758222 399.758222 0 0 0 512 912.952889c80.782222 0 158.72-23.893333 225.28-69.176889a27.022222 27.022222 0 1 1 30.378667 44.828444A452.039111 452.039111 0 0 1 512 967.111111z" p-id="36111" fill="#7c7c7c"></path></svg>