<?xml version="1.0" standalone="no"?><!DOCTYPE svg PUBLIC "-//W3C//DTD SVG 1.1//EN" "http://www.w3.org/Graphics/SVG/1.1/DTD/svg11.dtd"><svg t="1717750486068" class="icon" viewBox="0 0 1024 1024" version="1.1" xmlns="http://www.w3.org/2000/svg" p-id="36054" xmlns:xlink="http://www.w3.org/1999/xlink" width="64" height="64"><path d="M512 56.888889a455.111111 455.111111 0 1 1 0 910.222222A455.111111 455.111111 0 0 1 512 56.888889z m237.056 295.139555a37.888 37.888 0 0 0-49.379556 3.754667l-241.265777 241.208889-133.802667-133.688889a38.115556 38.115556 0 0 0-53.987556-0.341333 38.115556 38.115556 0 0 0 0.398223 54.044444l160.540444 160.483556 4.266667 3.697778a37.888 37.888 0 0 0 49.436444-3.754667l268.003556-268.060445a38.115556 38.115556 0 0 0 0.113778-53.703111z" p-id="36055" fill="#f76793"></path></svg>