<?xml version="1.0" encoding="UTF-8"?>
<svg width="24px" height="24px" viewBox="0 0 24 24" version="1.1" xmlns="http://www.w3.org/2000/svg" xmlns:xlink="http://www.w3.org/1999/xlink">
    <title>img/logo</title>
    <g id="img/logo" stroke="none" stroke-width="1" fill="none" fill-rule="evenodd">
        <rect id="矩形" x="0" y="0" width="24" height="24"></rect>
        <path d="M1,8.38455221 C1,7.52203685 1.13902602,6.73083095 1.41707807,6.01093452 C1.69513011,5.29103808 2.08538485,4.66710772 2.58784229,4.13914344 C3.09029972,3.61117916 3.67942557,3.20290507 4.35521985,2.91432117 C5.03101413,2.62573726 5.76824425,2.48144531 6.56691022,2.48144531 C7.48691197,2.48144531 8.35088095,2.72359579 9.15881714,3.20789673 C9.96675334,3.69219768 10.580481,4.33982472 11,5.15077786 C11.4163375,4.33982472 12.0292972,3.69219768 12.838879,3.20789673 C13.6484608,2.72359579 14.5131977,2.48144531 15.4330898,2.48144531 C16.2337305,2.48144531 16.971948,2.62573726 17.6477422,2.91432117 C18.3235365,3.20290507 18.9121687,3.61117916 19.4136388,4.13914344 C19.9151088,4.66710772 20.3048699,5.29103808 20.5829219,6.01093452 C20.860974,6.73083095 21,7.52203685 21,8.38455221 C21,9.80372019 20.59488,11.208352 19.7846399,12.5984477 C18.9743999,13.9885433 17.8545122,15.3464126 16.424977,16.6720555 C14.9954417,17.9976984 13.3492079,19.274604 11.4862757,20.5027723 C11.4147468,20.5526889 11.3349899,20.5947615 11.247005,20.6289901 C11.1590201,20.6632186 11.0766851,20.6803329 11,20.6803329 C10.9251799,20.6803329 10.8425432,20.6632186 10.7520899,20.6289901 C10.6616366,20.5947615 10.5805907,20.5526889 10.5089521,20.5027723 C8.65117606,19.274604 7.00702672,17.9976984 5.57650408,16.6720555 C4.14598144,15.3464126 3.0256001,13.9885433 2.21536006,12.5984477 C1.40512002,11.208352 1,9.80372019 1,8.38455221 Z M1.77935756,8.38455221 C1.77935756,9.37575372 2.01585813,10.3729068 2.48885927,11.3760115 C2.96186041,12.3791162 3.61606986,13.3679865 4.45148763,14.3426222 C5.28690539,15.317258 6.25232579,16.2645494 7.34774882,17.1844963 C8.44317184,18.1044432 9.61330525,18.9778469 10.858149,19.8047076 C10.9246314,19.8534174 10.971915,19.8777723 11,19.8777723 C11.028085,19.8777723 11.076356,19.8534174 11.1448131,19.8047076 C12.3896568,18.9778469 13.5597902,18.1044432 14.6552133,17.1844963 C15.7506363,16.2645494 16.7155904,15.317258 17.5500757,14.3426222 C18.384561,13.3679865 19.0382767,12.3791162 19.511223,11.3760115 C19.9841693,10.3729068 20.2206424,9.37575372 20.2206424,8.38455221 C20.2206424,7.37437141 20.0134336,6.48434706 19.5990159,5.71447915 C19.1845983,4.94461123 18.6179897,4.34193658 17.8991904,3.90645519 C17.180391,3.47097379 16.3603322,3.2532331 15.439014,3.2532331 C14.7993132,3.2532331 14.2259577,3.37210048 13.7189475,3.60983525 C13.2119372,3.84757003 12.7665273,4.1628127 12.3827179,4.55556327 C11.9989084,4.94831384 11.6749166,5.38033947 11.4107425,5.85164015 C11.3377874,5.9738536 11.2712502,6.05956208 11.2111309,6.10876561 C11.1510115,6.15796914 11.0806345,6.1825709 11,6.1825709 C10.9194752,6.1825709 10.8486594,6.15843539 10.7875527,6.11016438 C10.7264459,6.06189336 10.6578243,5.97571861 10.5816877,5.85164015 C10.3263999,5.37836474 10.0073449,4.94584544 9.62452278,4.55408223 C9.24170068,4.16231902 8.79533088,3.84757003 8.28541338,3.60983525 C7.77549588,3.37210048 7.20074162,3.2532331 6.56115061,3.2532331 C5.63972266,3.2532331 4.81834738,3.47097379 4.09702475,3.90645519 C3.37570212,4.34193658 2.8090936,4.94461123 2.39719918,5.71447915 C1.98530477,6.48434706 1.77935756,7.37437141 1.77935756,8.38455221 Z" id="形状" fill="#F76793" fill-rule="nonzero"></path>
        <path d="M16.4882812,20.8181269 C16.422823,20.8181269 16.3453642,20.7995804 16.2559046,20.7624874 C16.1664451,20.7253944 16.0868042,20.6850285 16.0169822,20.6413897 C14.7863679,19.8558912 13.7193991,19.0322088 12.8160758,18.1703424 C11.9127525,17.308476 11.2156226,16.4226083 10.7246861,15.5127392 C10.2337495,14.6028701 9.98828125,13.6831823 9.98828125,12.7536757 C9.98828125,12.1732796 10.0810137,11.6419772 10.2664786,11.1597684 C10.4519436,10.6775596 10.7105035,10.259718 11.0421584,9.90624371 C11.3738133,9.55276939 11.7600167,9.28002685 12.2007687,9.08801611 C12.6415206,8.89600537 13.1193655,8.8 13.6343034,8.8 C14.2757938,8.8 14.8387344,8.96364552 15.3231252,9.29093656 C15.8075159,9.61822759 16.1959013,10.0502518 16.4882812,10.5870091 C16.7850251,10.0458879 17.1755924,9.61277274 17.6599832,9.28766365 C18.1443739,8.96255455 18.7051325,8.8 19.3422591,8.8 C19.857197,8.8 20.3361329,8.89600537 20.7790667,9.08801611 C21.2220006,9.28002685 21.608204,9.55276939 21.937677,9.90624371 C22.26715,10.259718 22.5246189,10.6775596 22.7100839,11.1597684 C22.8955488,11.6419772 22.9882812,12.1732796 22.9882812,12.7536757 C22.9882812,13.6831823 22.742813,14.6028701 22.2518764,15.5127392 C21.7609399,16.4226083 21.0649009,17.308476 20.1637596,18.1703424 C19.2626183,19.0322088 18.1967405,19.8558912 16.9661262,20.6413897 C16.8963041,20.6850285 16.8166633,20.7253944 16.7272037,20.7624874 C16.6377442,20.7995804 16.5581033,20.8181269 16.4882812,20.8181269 Z" id="路径" fill="#F76793" fill-rule="nonzero"></path>
    </g>
</svg>